<?xml version="1.0" encoding="UTF-8" standalone="no"?>
<!DOCTYPE svg PUBLIC "-//W3C//DTD SVG 1.1//EN"
 "http://www.w3.org/Graphics/SVG/1.1/DTD/svg11.dtd">
<!-- Generated by graphviz version 2.38.0 (20140413.2041)
 -->
<!-- Title: G Pages: 1 -->
<svg width="1125pt" height="2468pt"
 viewBox="0.00 0.00 1125.00 2468.00" xmlns="http://www.w3.org/2000/svg" xmlns:xlink="http://www.w3.org/1999/xlink">
<g id="graph0" class="graph" transform="scale(1 1) rotate(0) translate(4 2464)">
<title>G</title>
<polygon fill="white" stroke="none" points="-4,4 -4,-2464 1121,-2464 1121,4 -4,4"/>
<g id="clust1" class="cluster"><title>cluster_Global</title>
<path fill="none" stroke="gray" d="M20,-206C20,-206 1097,-206 1097,-206 1103,-206 1109,-212 1109,-218 1109,-218 1109,-2440 1109,-2440 1109,-2446 1103,-2452 1097,-2452 1097,-2452 20,-2452 20,-2452 14,-2452 8,-2446 8,-2440 8,-2440 8,-218 8,-218 8,-212 14,-206 20,-206"/>
<text text-anchor="middle" x="558.5" y="-2439.2" font-family="Times New Roman,serif" font-size="11.00" fill="gray">Global</text>
</g>
<g id="clust2" class="cluster"><title>cluster_\classes</title>
<path fill="none" stroke="gray" d="M702,-456C702,-456 1089,-456 1089,-456 1095,-456 1101,-462 1101,-468 1101,-468 1101,-2032 1101,-2032 1101,-2038 1095,-2044 1089,-2044 1089,-2044 702,-2044 702,-2044 696,-2044 690,-2038 690,-2032 690,-2032 690,-468 690,-468 690,-462 696,-456 702,-456"/>
<text text-anchor="middle" x="895.5" y="-2031.2" font-family="Times New Roman,serif" font-size="11.00" fill="gray">classes</text>
</g>
<g id="clust4" class="cluster"><title>cluster_\classes\logger</title>
<path fill="none" stroke="gray" d="M934,-1434C934,-1434 1030,-1434 1030,-1434 1036,-1434 1042,-1440 1042,-1446 1042,-1446 1042,-1602 1042,-1602 1042,-1608 1036,-1614 1030,-1614 1030,-1614 934,-1614 934,-1614 928,-1614 922,-1608 922,-1602 922,-1602 922,-1446 922,-1446 922,-1440 928,-1434 934,-1434"/>
<text text-anchor="middle" x="982" y="-1601.2" font-family="Times New Roman,serif" font-size="11.00" fill="gray">logger</text>
</g>
<g id="clust5" class="cluster"><title>cluster_\classes\websocket</title>
<path fill="none" stroke="gray" d="M713.5,-1022C713.5,-1022 1031.5,-1022 1031.5,-1022 1037.5,-1022 1043.5,-1028 1043.5,-1034 1043.5,-1034 1043.5,-1118 1043.5,-1118 1043.5,-1124 1037.5,-1130 1031.5,-1130 1031.5,-1130 713.5,-1130 713.5,-1130 707.5,-1130 701.5,-1124 701.5,-1118 701.5,-1118 701.5,-1034 701.5,-1034 701.5,-1028 707.5,-1022 713.5,-1022"/>
<text text-anchor="middle" x="872.5" y="-1117.2" font-family="Times New Roman,serif" font-size="11.00" fill="gray">websocket</text>
</g>
<g id="clust6" class="cluster"><title>cluster_\classes\websocket\services</title>
<path fill="none" stroke="gray" d="M940.5,-1030C940.5,-1030 1023.5,-1030 1023.5,-1030 1029.5,-1030 1035.5,-1036 1035.5,-1042 1035.5,-1042 1035.5,-1090 1035.5,-1090 1035.5,-1096 1029.5,-1102 1023.5,-1102 1023.5,-1102 940.5,-1102 940.5,-1102 934.5,-1102 928.5,-1096 928.5,-1090 928.5,-1090 928.5,-1042 928.5,-1042 928.5,-1036 934.5,-1030 940.5,-1030"/>
<text text-anchor="middle" x="982" y="-1089.2" font-family="Times New Roman,serif" font-size="11.00" fill="gray">services</text>
</g>
<g id="clust3" class="cluster"><title>cluster_\classes\entitiesManager</title>
<path fill="none" stroke="gray" d="M883,-1138C883,-1138 1081,-1138 1081,-1138 1087,-1138 1093,-1144 1093,-1150 1093,-1150 1093,-1414 1093,-1414 1093,-1420 1087,-1426 1081,-1426 1081,-1426 883,-1426 883,-1426 877,-1426 871,-1420 871,-1414 871,-1414 871,-1150 871,-1150 871,-1144 877,-1138 883,-1138"/>
<text text-anchor="middle" x="982" y="-1413.2" font-family="Times New Roman,serif" font-size="11.00" fill="gray">entitiesManager</text>
</g>
<g id="clust9" class="cluster"><title>cluster_\classes\entitiesCollection</title>
<path fill="none" stroke="gray" d="M930.5,-1864C930.5,-1864 1033.5,-1864 1033.5,-1864 1039.5,-1864 1045.5,-1870 1045.5,-1876 1045.5,-1876 1045.5,-1924 1045.5,-1924 1045.5,-1930 1039.5,-1936 1033.5,-1936 1033.5,-1936 930.5,-1936 930.5,-1936 924.5,-1936 918.5,-1930 918.5,-1924 918.5,-1924 918.5,-1876 918.5,-1876 918.5,-1870 924.5,-1864 930.5,-1864"/>
<text text-anchor="middle" x="982" y="-1923.2" font-family="Times New Roman,serif" font-size="11.00" fill="gray">entitiesCollection</text>
</g>
<g id="clust7" class="cluster"><title>cluster_\classes\console</title>
<path fill="none" stroke="gray" d="M710,-834C710,-834 1030,-834 1030,-834 1036,-834 1042,-840 1042,-846 1042,-846 1042,-1002 1042,-1002 1042,-1008 1036,-1014 1030,-1014 1030,-1014 710,-1014 710,-1014 704,-1014 698,-1008 698,-1002 698,-1002 698,-846 698,-846 698,-840 704,-834 710,-834"/>
<text text-anchor="middle" x="870" y="-1001.2" font-family="Times New Roman,serif" font-size="11.00" fill="gray">console</text>
</g>
<g id="clust8" class="cluster"><title>cluster_\classes\entities</title>
<path fill="none" stroke="gray" d="M927,-1622C927,-1622 1037,-1622 1037,-1622 1043,-1622 1049,-1628 1049,-1634 1049,-1634 1049,-1844 1049,-1844 1049,-1850 1043,-1856 1037,-1856 1037,-1856 927,-1856 927,-1856 921,-1856 915,-1850 915,-1844 915,-1844 915,-1634 915,-1634 915,-1628 921,-1622 927,-1622"/>
<text text-anchor="middle" x="982" y="-1843.2" font-family="Times New Roman,serif" font-size="11.00" fill="gray">entities</text>
</g>
<g id="clust10" class="cluster"><title>cluster_\classes\fileManager</title>
<path fill="none" stroke="gray" d="M930.5,-1944C930.5,-1944 1033.5,-1944 1033.5,-1944 1039.5,-1944 1045.5,-1950 1045.5,-1956 1045.5,-1956 1045.5,-2004 1045.5,-2004 1045.5,-2010 1039.5,-2016 1033.5,-2016 1033.5,-2016 930.5,-2016 930.5,-2016 924.5,-2016 918.5,-2010 918.5,-2004 918.5,-2004 918.5,-1956 918.5,-1956 918.5,-1950 924.5,-1944 930.5,-1944"/>
<text text-anchor="middle" x="982" y="-2003.2" font-family="Times New Roman,serif" font-size="11.00" fill="gray">fileManager</text>
</g>
<g id="clust11" class="cluster"><title>cluster_\abstracts</title>
<path fill="none" stroke="gray" d="M673,-2052C673,-2052 803,-2052 803,-2052 809,-2052 815,-2058 815,-2064 815,-2064 815,-2382 815,-2382 815,-2388 809,-2394 803,-2394 803,-2394 673,-2394 673,-2394 667,-2394 661,-2388 661,-2382 661,-2382 661,-2064 661,-2064 661,-2058 667,-2052 673,-2052"/>
<text text-anchor="middle" x="738" y="-2381.2" font-family="Times New Roman,serif" font-size="11.00" fill="gray">abstracts</text>
</g>
<g id="clust12" class="cluster"><title>cluster_\interfaces</title>
<path fill="none" stroke="gray" d="M28,-2000C28,-2000 601,-2000 601,-2000 607,-2000 613,-2006 613,-2012 613,-2012 613,-2412 613,-2412 613,-2418 607,-2424 601,-2424 601,-2424 28,-2424 28,-2424 22,-2424 16,-2418 16,-2412 16,-2412 16,-2012 16,-2012 16,-2006 22,-2000 28,-2000"/>
<text text-anchor="middle" x="314.5" y="-2411.2" font-family="Times New Roman,serif" font-size="11.00" fill="gray">interfaces</text>
</g>
<g id="clust13" class="cluster"><title>cluster_\interfaces\http</title>
<path fill="none" stroke="gray" d="M36,-2162C36,-2162 593,-2162 593,-2162 599,-2162 605,-2168 605,-2174 605,-2174 605,-2384 605,-2384 605,-2390 599,-2396 593,-2396 593,-2396 36,-2396 36,-2396 30,-2396 24,-2390 24,-2384 24,-2384 24,-2174 24,-2174 24,-2168 30,-2162 36,-2162"/>
<text text-anchor="middle" x="314.5" y="-2383.2" font-family="Times New Roman,serif" font-size="11.00" fill="gray">http</text>
</g>
<g id="clust14" class="cluster"><title>cluster_\traits</title>
<path fill="none" stroke="gray" d="M920.5,-214C920.5,-214 1043.5,-214 1043.5,-214 1049.5,-214 1055.5,-220 1055.5,-226 1055.5,-226 1055.5,-436 1055.5,-436 1055.5,-442 1049.5,-448 1043.5,-448 1043.5,-448 920.5,-448 920.5,-448 914.5,-448 908.5,-442 908.5,-436 908.5,-436 908.5,-226 908.5,-226 908.5,-220 914.5,-214 920.5,-214"/>
<text text-anchor="middle" x="982" y="-435.2" font-family="Times New Roman,serif" font-size="11.00" fill="gray">traits</text>
</g>
<!-- \\classes\\entitiesManager\\UserEntityManager -->
<g id="node1" class="node"><title>\\classes\\entitiesManager\\UserEntityManager</title>
<polygon fill="none" stroke="black" points="1047.5,-1398 916.5,-1398 916.5,-1362 1047.5,-1362 1047.5,-1398"/>
<text text-anchor="middle" x="982" y="-1377.2" font-family="Courier,monospace" font-size="11.00">UserEntityManager</text>
</g>
<!-- \\abstracts\\EntityManager -->
<g id="node29" class="node"><title>\\abstracts\\EntityManager</title>
<polygon fill="none" stroke="black" points="790,-2150 686,-2150 686,-2114 790,-2114 790,-2150"/>
<text text-anchor="start" x="704" y="-2135.2" font-family="Courier,monospace" font-size="11.00">«abstract»</text>
<text text-anchor="start" x="694" y="-2123.2" font-family="Courier,monospace" font-size="11.00">EntityManager</text>
</g>
<!-- \\classes\\entitiesManager\\UserEntityManager&#45;&gt;\\abstracts\\EntityManager -->
<g id="edge1" class="edge"><title>\\classes\\entitiesManager\\UserEntityManager&#45;&gt;\\abstracts\\EntityManager</title>
<path fill="none" stroke="black" d="M916.225,-1396.21C898.879,-1403.68 881.93,-1414.48 871,-1430 784.347,-1553.07 906.82,-1985.74 815,-2105 810.753,-2110.52 805.289,-2114.91 799.241,-2118.4"/>
<polygon fill="none" stroke="black" points="797.477,-2115.37 790.036,-2122.91 800.556,-2121.66 797.477,-2115.37"/>
</g>
<!-- \\classes\\entitiesManager\\UsersChatRightsEntityManager -->
<g id="node2" class="node"><title>\\classes\\entitiesManager\\UsersChatRightsEntityManager</title>
<polygon fill="none" stroke="black" points="1085,-1344 879,-1344 879,-1308 1085,-1308 1085,-1344"/>
<text text-anchor="middle" x="982" y="-1323.2" font-family="Courier,monospace" font-size="11.00">UsersChatRightsEntityManager</text>
</g>
<!-- \\classes\\entitiesManager\\UsersChatRightsEntityManager&#45;&gt;\\abstracts\\EntityManager -->
<g id="edge19" class="edge"><title>\\classes\\entitiesManager\\UsersChatRightsEntityManager&#45;&gt;\\abstracts\\EntityManager</title>
<path fill="none" stroke="black" d="M880.301,-1344.16C876.921,-1346.76 873.794,-1349.7 871,-1353 762.762,-1480.93 916.665,-1971.79 815,-2105 810.776,-2110.53 805.327,-2114.94 799.286,-2118.44"/>
<polygon fill="none" stroke="black" points="797.524,-2115.41 790.088,-2122.95 800.608,-2121.69 797.524,-2115.41"/>
</g>
<!-- \\classes\\entitiesManager\\UsersRightsEntityManager -->
<g id="node3" class="node"><title>\\classes\\entitiesManager\\UsersRightsEntityManager</title>
<polygon fill="none" stroke="black" points="1071.5,-1290 892.5,-1290 892.5,-1254 1071.5,-1254 1071.5,-1290"/>
<text text-anchor="middle" x="982" y="-1269.2" font-family="Courier,monospace" font-size="11.00">UsersRightsEntityManager</text>
</g>
<!-- \\classes\\entitiesManager\\UsersRightsEntityManager&#45;&gt;\\abstracts\\EntityManager -->
<g id="edge21" class="edge"><title>\\classes\\entitiesManager\\UsersRightsEntityManager&#45;&gt;\\abstracts\\EntityManager</title>
<path fill="none" stroke="black" d="M892.401,-1282.6C884.267,-1286.66 876.889,-1292 871,-1299 755.372,-1436.35 923.572,-1962 815,-2105 810.79,-2110.54 805.349,-2114.95 799.313,-2118.46"/>
<polygon fill="none" stroke="black" points="797.551,-2115.43 790.119,-2122.98 800.638,-2121.71 797.551,-2115.43"/>
</g>
<!-- \\classes\\entitiesManager\\UserStatisticsEntityManager -->
<g id="node4" class="node"><title>\\classes\\entitiesManager\\UserStatisticsEntityManager</title>
<polygon fill="none" stroke="black" points="1081.5,-1236 882.5,-1236 882.5,-1200 1081.5,-1200 1081.5,-1236"/>
<text text-anchor="middle" x="982" y="-1215.2" font-family="Courier,monospace" font-size="11.00">UserStatisticsEntityManager</text>
</g>
<!-- \\classes\\entitiesManager\\UserStatisticsEntityManager&#45;&gt;\\abstracts\\EntityManager -->
<g id="edge22" class="edge"><title>\\classes\\entitiesManager\\UserStatisticsEntityManager&#45;&gt;\\abstracts\\EntityManager</title>
<path fill="none" stroke="black" d="M882.126,-1234.73C878.036,-1237.68 874.284,-1241.08 871,-1245 747.98,-1391.78 930.48,-1952.22 815,-2105 810.802,-2110.55 805.368,-2114.97 799.337,-2118.48"/>
<polygon fill="none" stroke="black" points="797.575,-2115.44 790.147,-2123 800.665,-2121.73 797.575,-2115.44"/>
</g>
<!-- \\classes\\entitiesManager\\GlobalEntityManager -->
<g id="node5" class="node"><title>\\classes\\entitiesManager\\GlobalEntityManager</title>
<polygon fill="none" stroke="black" points="1054.5,-1182 909.5,-1182 909.5,-1146 1054.5,-1146 1054.5,-1182"/>
<text text-anchor="middle" x="982" y="-1161.2" font-family="Courier,monospace" font-size="11.00">GlobalEntityManager</text>
</g>
<!-- \\classes\\entitiesManager\\GlobalEntityManager&#45;&gt;\\abstracts\\EntityManager -->
<g id="edge24" class="edge"><title>\\classes\\entitiesManager\\GlobalEntityManager&#45;&gt;\\abstracts\\EntityManager</title>
<path fill="none" stroke="black" d="M909.385,-1168.01C894.701,-1172.21 880.767,-1179.3 871,-1191 740.586,-1347.21 937.391,-1942.43 815,-2105 810.813,-2110.56 805.385,-2114.98 799.357,-2118.49"/>
<polygon fill="none" stroke="black" points="797.597,-2115.46 790.171,-2123.02 800.688,-2121.74 797.597,-2115.46"/>
</g>
<!-- \\classes\\logger\\LogLevel -->
<g id="node6" class="node"><title>\\classes\\logger\\LogLevel</title>
<polygon fill="none" stroke="black" points="1017.5,-1586 946.5,-1586 946.5,-1550 1017.5,-1550 1017.5,-1586"/>
<text text-anchor="middle" x="982" y="-1565.2" font-family="Courier,monospace" font-size="11.00">LogLevel</text>
</g>
<!-- \\classes\\logger\\ConsoleLogger -->
<g id="node7" class="node"><title>\\classes\\logger\\ConsoleLogger</title>
<polygon fill="none" stroke="black" points="1034,-1532 930,-1532 930,-1496 1034,-1496 1034,-1532"/>
<text text-anchor="middle" x="982" y="-1511.2" font-family="Courier,monospace" font-size="11.00">ConsoleLogger</text>
</g>
<!-- \\abstracts\\AbstractLogger -->
<g id="node31" class="node"><title>\\abstracts\\AbstractLogger</title>
<polygon fill="none" stroke="black" points="793.5,-2204 682.5,-2204 682.5,-2168 793.5,-2168 793.5,-2204"/>
<text text-anchor="start" x="704" y="-2189.2" font-family="Courier,monospace" font-size="11.00">«abstract»</text>
<text text-anchor="start" x="690.5" y="-2177.2" font-family="Courier,monospace" font-size="11.00">AbstractLogger</text>
</g>
<!-- \\classes\\logger\\ConsoleLogger&#45;&gt;\\abstracts\\AbstractLogger -->
<g id="edge10" class="edge"><title>\\classes\\logger\\ConsoleLogger&#45;&gt;\\abstracts\\AbstractLogger</title>
<path fill="none" stroke="black" d="M929.938,-1514.09C908.618,-1516.92 885.488,-1524.15 871,-1541 781.09,-1645.55 899.536,-2050.06 815,-2159 811.566,-2163.43 807.35,-2167.13 802.68,-2170.22"/>
<polygon fill="none" stroke="black" points="800.868,-2167.23 793.854,-2175.17 804.289,-2173.33 800.868,-2167.23"/>
</g>
<!-- \\classes\\logger\\FileLogger -->
<g id="node8" class="node"><title>\\classes\\logger\\FileLogger</title>
<polygon fill="none" stroke="black" points="1024,-1478 940,-1478 940,-1442 1024,-1442 1024,-1478"/>
<text text-anchor="middle" x="982" y="-1457.2" font-family="Courier,monospace" font-size="11.00">FileLogger</text>
</g>
<!-- \\classes\\logger\\FileLogger&#45;&gt;\\abstracts\\AbstractLogger -->
<g id="edge20" class="edge"><title>\\classes\\logger\\FileLogger&#45;&gt;\\abstracts\\AbstractLogger</title>
<path fill="none" stroke="black" d="M939.896,-1459.01C916.137,-1460.8 887.725,-1467.41 871,-1487 773.707,-1600.97 906.436,-2040.28 815,-2159 811.529,-2163.51 807.246,-2167.26 802.495,-2170.39"/>
<polygon fill="none" stroke="black" points="800.559,-2167.47 793.515,-2175.38 803.957,-2173.59 800.559,-2167.47"/>
</g>
<!-- \\classes\\websocket\\services\\ChatService -->
<g id="node9" class="node"><title>\\classes\\websocket\\services\\ChatService</title>
<polygon fill="none" stroke="black" points="1027.5,-1074 936.5,-1074 936.5,-1038 1027.5,-1038 1027.5,-1074"/>
<text text-anchor="middle" x="982" y="-1053.2" font-family="Courier,monospace" font-size="11.00">ChatService</text>
</g>
<!-- \\classes\\websocket\\Server -->
<g id="node10" class="node"><title>\\classes\\websocket\\Server</title>
<polygon fill="none" stroke="black" points="766.5,-1074 709.5,-1074 709.5,-1038 766.5,-1038 766.5,-1074"/>
<text text-anchor="middle" x="738" y="-1053.2" font-family="Courier,monospace" font-size="11.00">Server</text>
</g>
<!-- \\classes\\websocket\\services\\ChatService&#45;&gt;\\classes\\websocket\\Server -->
<g id="edge2" class="edge"><title>\\classes\\websocket\\services\\ChatService&#45;&gt;\\classes\\websocket\\Server</title>
<path fill="none" stroke="black" d="M936.331,-1056C890.532,-1056 820.073,-1056 776.906,-1056"/>
<polygon fill="none" stroke="black" points="776.814,-1052.5 766.814,-1056 776.813,-1059.5 776.814,-1052.5"/>
</g>
<!-- \\interfaces\\ServiceInterface -->
<g id="node41" class="node"><title>\\interfaces\\ServiceInterface</title>
<polygon fill="none" stroke="black" points="577,-2098 452,-2098 452,-2062 577,-2062 577,-2098"/>
<text text-anchor="middle" x="514.5" y="-2077.2" font-family="Courier,monospace" font-size="11.00">ServiceInterface</text>
</g>
<!-- \\classes\\websocket\\services\\ChatService&#45;&gt;\\interfaces\\ServiceInterface -->
<g id="edge3" class="edge"><title>\\classes\\websocket\\services\\ChatService&#45;&gt;\\interfaces\\ServiceInterface</title>
<path fill="none" stroke="black" stroke-dasharray="1,5" d="M938.989,-1074.08C914.575,-1086.98 885.792,-1106.87 871,-1134 803.708,-1257.43 916.583,-2300.82 815,-2398 802.636,-2409.83 674.047,-2409.07 661,-2398 561.053,-2313.19 700.615,-2204.5 613,-2107 605.883,-2099.08 596.668,-2093.4 586.749,-2089.34"/>
<polygon fill="none" stroke="black" points="587.664,-2085.95 577.069,-2085.92 585.334,-2092.55 587.664,-2085.95"/>
</g>
<!-- \\classes\\console\\Deployment -->
<g id="node11" class="node"><title>\\classes\\console\\Deployment</title>
<polygon fill="none" stroke="black" points="1024,-986 940,-986 940,-950 1024,-950 1024,-986"/>
<text text-anchor="middle" x="982" y="-965.2" font-family="Courier,monospace" font-size="11.00">Deployment</text>
</g>
<!-- \\classes\\console\\Console -->
<g id="node13" class="node"><title>\\classes\\console\\Console</title>
<polygon fill="none" stroke="black" points="770,-959 706,-959 706,-923 770,-923 770,-959"/>
<text text-anchor="middle" x="738" y="-938.2" font-family="Courier,monospace" font-size="11.00">Console</text>
</g>
<!-- \\classes\\console\\Deployment&#45;&gt;\\classes\\console\\Console -->
<g id="edge4" class="edge"><title>\\classes\\console\\Deployment&#45;&gt;\\classes\\console\\Console</title>
<path fill="none" stroke="black" d="M939.948,-963.42C895.504,-958.461 825.013,-950.597 780.424,-945.622"/>
<polygon fill="none" stroke="black" points="780.553,-942.114 770.227,-944.484 779.777,-949.071 780.553,-942.114"/>
</g>
<!-- \\classes\\console\\Orm -->
<g id="node12" class="node"><title>\\classes\\console\\Orm</title>
<polygon fill="none" stroke="black" points="1009,-932 955,-932 955,-896 1009,-896 1009,-932"/>
<text text-anchor="middle" x="982" y="-911.2" font-family="Courier,monospace" font-size="11.00">Orm</text>
</g>
<!-- \\classes\\console\\Orm&#45;&gt;\\classes\\console\\Console -->
<g id="edge5" class="edge"><title>\\classes\\console\\Orm&#45;&gt;\\classes\\console\\Console</title>
<path fill="none" stroke="black" d="M954.641,-916.941C912.668,-921.624 830.302,-930.813 780.401,-936.381"/>
<polygon fill="none" stroke="black" points="779.822,-932.924 770.272,-937.511 780.599,-939.88 779.822,-932.924"/>
</g>
<!-- \\classes\\console\\ConsoleColors -->
<g id="node14" class="node"><title>\\classes\\console\\ConsoleColors</title>
<polygon fill="none" stroke="black" points="1034,-878 930,-878 930,-842 1034,-842 1034,-878"/>
<text text-anchor="middle" x="982" y="-857.2" font-family="Courier,monospace" font-size="11.00">ConsoleColors</text>
</g>
<!-- \\classes\\entities\\UsersRights -->
<g id="node15" class="node"><title>\\classes\\entities\\UsersRights</title>
<polygon fill="none" stroke="black" points="1027.5,-1828 936.5,-1828 936.5,-1792 1027.5,-1792 1027.5,-1828"/>
<text text-anchor="middle" x="982" y="-1807.2" font-family="Courier,monospace" font-size="11.00">UsersRights</text>
</g>
<!-- \\abstracts\\Entity -->
<g id="node28" class="node"><title>\\abstracts\\Entity</title>
<polygon fill="none" stroke="black" points="780,-2312 696,-2312 696,-2276 780,-2276 780,-2312"/>
<text text-anchor="start" x="704" y="-2297.2" font-family="Courier,monospace" font-size="11.00">«abstract»</text>
<text text-anchor="start" x="717.5" y="-2285.2" font-family="Courier,monospace" font-size="11.00">Entity</text>
</g>
<!-- \\classes\\entities\\UsersRights&#45;&gt;\\abstracts\\Entity -->
<g id="edge7" class="edge"><title>\\classes\\entities\\UsersRights&#45;&gt;\\abstracts\\Entity</title>
<path fill="none" stroke="black" d="M936.376,-1819.36C913.262,-1826.56 886.669,-1838.97 871,-1860 761.89,-2006.41 930.251,-2125.38 815,-2267 808.504,-2274.98 799.473,-2280.61 789.899,-2284.57"/>
<polygon fill="none" stroke="black" points="788.471,-2281.36 780.217,-2288 790.812,-2287.96 788.471,-2281.36"/>
</g>
<!-- \\classes\\entities\\UsersChatRights -->
<g id="node16" class="node"><title>\\classes\\entities\\UsersChatRights</title>
<polygon fill="none" stroke="black" points="1041,-1774 923,-1774 923,-1738 1041,-1738 1041,-1774"/>
<text text-anchor="middle" x="982" y="-1753.2" font-family="Courier,monospace" font-size="11.00">UsersChatRights</text>
</g>
<!-- \\classes\\entities\\UsersChatRights&#45;&gt;\\abstracts\\Entity -->
<g id="edge8" class="edge"><title>\\classes\\entities\\UsersChatRights&#45;&gt;\\abstracts\\Entity</title>
<path fill="none" stroke="black" d="M922.729,-1757.43C903.635,-1760.9 884.005,-1768.25 871,-1783 727.783,-1945.42 949.865,-2097.58 815,-2267 808.59,-2275.05 799.596,-2280.71 790.03,-2284.68"/>
<polygon fill="none" stroke="black" points="788.603,-2281.47 780.348,-2288.11 790.943,-2288.07 788.603,-2281.47"/>
</g>
<!-- \\classes\\entities\\UserStatistics -->
<g id="node17" class="node"><title>\\classes\\entities\\UserStatistics</title>
<polygon fill="none" stroke="black" points="1037.5,-1720 926.5,-1720 926.5,-1684 1037.5,-1684 1037.5,-1720"/>
<text text-anchor="middle" x="982" y="-1699.2" font-family="Courier,monospace" font-size="11.00">UserStatistics</text>
</g>
<!-- \\classes\\entities\\UserStatistics&#45;&gt;\\abstracts\\Entity -->
<g id="edge9" class="edge"><title>\\classes\\entities\\UserStatistics&#45;&gt;\\abstracts\\Entity</title>
<path fill="none" stroke="black" d="M926.351,-1702.72C906.109,-1705.89 884.76,-1713.21 871,-1729 713.042,-1910.23 963.641,-2078.06 815,-2267 808.505,-2275.26 799.289,-2280.99 789.506,-2284.98"/>
<polygon fill="none" stroke="black" points="788.312,-2281.69 780.022,-2288.28 790.617,-2288.3 788.312,-2281.69"/>
</g>
<!-- \\classes\\entities\\User -->
<g id="node18" class="node"><title>\\classes\\entities\\User</title>
<polygon fill="none" stroke="black" points="1009,-1666 955,-1666 955,-1630 1009,-1630 1009,-1666"/>
<text text-anchor="middle" x="982" y="-1645.2" font-family="Courier,monospace" font-size="11.00">User</text>
</g>
<!-- \\classes\\entities\\User&#45;&gt;\\abstracts\\Entity -->
<g id="edge11" class="edge"><title>\\classes\\entities\\User&#45;&gt;\\abstracts\\Entity</title>
<path fill="none" stroke="black" d="M954.869,-1646.5C929.389,-1646.59 891.561,-1651.19 871,-1675 784.644,-1775.02 896.215,-2162.76 815,-2267 808.544,-2275.29 799.344,-2281.04 789.564,-2285.02"/>
<polygon fill="none" stroke="black" points="788.37,-2281.73 780.08,-2288.33 790.675,-2288.34 788.37,-2281.73"/>
</g>
<!-- \\classes\\entitiesCollection\\UserCollection -->
<g id="node19" class="node"><title>\\classes\\entitiesCollection\\UserCollection</title>
<polygon fill="none" stroke="black" points="1037.5,-1908 926.5,-1908 926.5,-1872 1037.5,-1872 1037.5,-1908"/>
<text text-anchor="middle" x="982" y="-1887.2" font-family="Courier,monospace" font-size="11.00">UserCollection</text>
</g>
<!-- \\abstracts\\Collection -->
<g id="node32" class="node"><title>\\abstracts\\Collection</title>
<polygon fill="none" stroke="black" points="780,-2366 696,-2366 696,-2330 780,-2330 780,-2366"/>
<text text-anchor="start" x="704" y="-2351.2" font-family="Courier,monospace" font-size="11.00">«abstract»</text>
<text text-anchor="start" x="704" y="-2339.2" font-family="Courier,monospace" font-size="11.00">Collection</text>
</g>
<!-- \\classes\\entitiesCollection\\UserCollection&#45;&gt;\\abstracts\\Collection -->
<g id="edge13" class="edge"><title>\\classes\\entitiesCollection\\UserCollection&#45;&gt;\\abstracts\\Collection</title>
<path fill="none" stroke="black" d="M926.301,-1902.87C905.926,-1910.39 884.495,-1922.06 871,-1940 768.096,-2076.76 923.64,-2188.75 815,-2321 808.467,-2328.95 799.421,-2334.56 789.843,-2338.52"/>
<polygon fill="none" stroke="black" points="788.416,-2335.32 780.161,-2341.96 790.756,-2341.91 788.416,-2335.32"/>
</g>
<!-- \\classes\\fileManager\\FtpFileManager -->
<g id="node20" class="node"><title>\\classes\\fileManager\\FtpFileManager</title>
<polygon fill="none" stroke="black" points="1037.5,-1988 926.5,-1988 926.5,-1952 1037.5,-1952 1037.5,-1988"/>
<text text-anchor="middle" x="982" y="-1967.2" font-family="Courier,monospace" font-size="11.00">FtpFileManager</text>
</g>
<!-- \\interfaces\\FileManagerInterface -->
<g id="node42" class="node"><title>\\interfaces\\FileManagerInterface</title>
<polygon fill="none" stroke="black" points="590.5,-2152 438.5,-2152 438.5,-2116 590.5,-2116 590.5,-2152"/>
<text text-anchor="middle" x="514.5" y="-2131.2" font-family="Courier,monospace" font-size="11.00">FileManagerInterface</text>
</g>
<!-- \\classes\\fileManager\\FtpFileManager&#45;&gt;\\interfaces\\FileManagerInterface -->
<g id="edge23" class="edge"><title>\\classes\\fileManager\\FtpFileManager&#45;&gt;\\interfaces\\FileManagerInterface</title>
<path fill="none" stroke="black" stroke-dasharray="1,5" d="M980.784,-1988.46C978.847,-2058.21 961.554,-2306.82 815,-2408 758.676,-2446.89 713.763,-2451.6 661,-2408 573.781,-2335.93 690.909,-2240.04 613,-2158 609.099,-2153.89 604.617,-2150.44 599.764,-2147.54"/>
<polygon fill="none" stroke="black" points="601.173,-2144.33 590.674,-2142.91 597.993,-2150.57 601.173,-2144.33"/>
</g>
<!-- \\classes\\LoggerManager -->
<g id="node21" class="node"><title>\\classes\\LoggerManager</title>
<polygon fill="none" stroke="black" points="1034,-824 930,-824 930,-788 1034,-788 1034,-824"/>
<text text-anchor="middle" x="982" y="-803.2" font-family="Courier,monospace" font-size="11.00">LoggerManager</text>
</g>
<!-- \\classes\\ExceptionManager -->
<g id="node22" class="node"><title>\\classes\\ExceptionManager</title>
<polygon fill="none" stroke="black" points="1044.5,-770 919.5,-770 919.5,-734 1044.5,-734 1044.5,-770"/>
<text text-anchor="middle" x="982" y="-749.2" font-family="Courier,monospace" font-size="11.00">ExceptionManager</text>
</g>
<!-- \\Exception -->
<g id="node48" class="node"><title>\\Exception</title>
<ellipse fill="none" stroke="black" cx="738" cy="-180" rx="50.0912" ry="18"/>
<text text-anchor="middle" x="738" y="-176.3" font-family="Times New Roman,serif" font-size="14.00" fill="gray">\Exception</text>
</g>
<!-- \\classes\\ExceptionManager&#45;&gt;\\Exception -->
<g id="edge6" class="edge"><title>\\classes\\ExceptionManager&#45;&gt;\\Exception</title>
<path fill="none" stroke="black" d="M919.421,-748.791C901.765,-744.979 883.842,-737.881 871,-725 796.227,-649.997 753.206,-308.821 741.975,-208.084"/>
<polygon fill="none" stroke="black" points="745.445,-207.613 740.874,-198.054 738.487,-208.377 745.445,-207.613"/>
</g>
<!-- \\classes\\PDOStatementCustom -->
<g id="node23" class="node"><title>\\classes\\PDOStatementCustom</title>
<polygon fill="none" stroke="black" points="1051,-716 913,-716 913,-680 1051,-680 1051,-716"/>
<text text-anchor="middle" x="982" y="-695.2" font-family="Courier,monospace" font-size="11.00">PDOStatementCustom</text>
</g>
<!-- \\PDOStatement -->
<g id="node49" class="node"><title>\\PDOStatement</title>
<ellipse fill="none" stroke="black" cx="738" cy="-126" rx="67.6881" ry="18"/>
<text text-anchor="middle" x="738" y="-122.3" font-family="Times New Roman,serif" font-size="14.00" fill="gray">\PDOStatement</text>
</g>
<!-- \\classes\\PDOStatementCustom&#45;&gt;\\PDOStatement -->
<g id="edge12" class="edge"><title>\\classes\\PDOStatementCustom&#45;&gt;\\PDOStatement</title>
<path fill="none" stroke="black" d="M912.917,-694.501C897.09,-690.438 881.748,-683.282 871,-671 718.503,-496.741 958.537,-334.711 815,-153 811.33,-148.354 806.799,-144.507 801.792,-141.32"/>
<polygon fill="none" stroke="black" points="803.445,-138.235 792.984,-136.557 800.116,-144.392 803.445,-138.235"/>
</g>
<!-- \\classes\\Benchmark -->
<g id="node24" class="node"><title>\\classes\\Benchmark</title>
<polygon fill="none" stroke="black" points="1020.5,-662 943.5,-662 943.5,-626 1020.5,-626 1020.5,-662"/>
<text text-anchor="middle" x="982" y="-641.2" font-family="Courier,monospace" font-size="11.00">Benchmark</text>
</g>
<!-- \\classes\\DataBase -->
<g id="node25" class="node"><title>\\classes\\DataBase</title>
<polygon fill="none" stroke="black" points="1017.5,-608 946.5,-608 946.5,-572 1017.5,-572 1017.5,-608"/>
<text text-anchor="middle" x="982" y="-587.2" font-family="Courier,monospace" font-size="11.00">DataBase</text>
</g>
<!-- \\classes\\IniManager -->
<g id="node26" class="node"><title>\\classes\\IniManager</title>
<polygon fill="none" stroke="black" points="1024,-554 940,-554 940,-518 1024,-518 1024,-554"/>
<text text-anchor="middle" x="982" y="-533.2" font-family="Courier,monospace" font-size="11.00">IniManager</text>
</g>
<!-- \\classes\\ImagesManager -->
<g id="node27" class="node"><title>\\classes\\ImagesManager</title>
<polygon fill="none" stroke="black" points="1034,-500 930,-500 930,-464 1034,-464 1034,-500"/>
<text text-anchor="middle" x="982" y="-479.2" font-family="Courier,monospace" font-size="11.00">ImagesManager</text>
</g>
<!-- \\abstracts\\API -->
<g id="node30" class="node"><title>\\abstracts\\API</title>
<polygon fill="none" stroke="black" points="780,-2258 696,-2258 696,-2222 780,-2222 780,-2258"/>
<text text-anchor="start" x="704" y="-2243.2" font-family="Courier,monospace" font-size="11.00">«abstract»</text>
<text text-anchor="start" x="727.5" y="-2231.2" font-family="Courier,monospace" font-size="11.00">API</text>
</g>
<!-- \\interfaces\\LoggerInterface -->
<g id="node43" class="node"><title>\\interfaces\\LoggerInterface</title>
<polygon fill="none" stroke="black" points="573.5,-2044 455.5,-2044 455.5,-2008 573.5,-2008 573.5,-2044"/>
<text text-anchor="middle" x="514.5" y="-2023.2" font-family="Courier,monospace" font-size="11.00">LoggerInterface</text>
</g>
<!-- \\abstracts\\AbstractLogger&#45;&gt;\\interfaces\\LoggerInterface -->
<g id="edge14" class="edge"><title>\\abstracts\\AbstractLogger&#45;&gt;\\interfaces\\LoggerInterface</title>
<path fill="none" stroke="black" stroke-dasharray="1,5" d="M682.443,-2172.75C674.645,-2169.19 667.184,-2164.69 661,-2159 622.931,-2124 652.291,-2086.63 613,-2053 604.434,-2045.67 594.032,-2040.32 583.255,-2036.41"/>
<polygon fill="none" stroke="black" points="584.316,-2033.08 573.725,-2033.34 582.169,-2039.74 584.316,-2033.08"/>
</g>
<!-- \\Iterator -->
<g id="node50" class="node"><title>\\Iterator</title>
<ellipse fill="none" stroke="black" cx="514.5" cy="-72" rx="39.7935" ry="18"/>
<text text-anchor="middle" x="514.5" y="-68.3" font-family="Times New Roman,serif" font-size="14.00" fill="gray">\Iterator</text>
</g>
<!-- \\abstracts\\Collection&#45;&gt;\\Iterator -->
<g id="edge15" class="edge"><title>\\abstracts\\Collection&#45;&gt;\\Iterator</title>
<path fill="none" stroke="black" stroke-dasharray="1,5" d="M695.864,-2342.79C682.589,-2338.95 669.199,-2332.35 661,-2321 588.704,-2220.91 688.813,-196.458 613,-99 601.444,-84.1444 582.479,-76.9947 564.333,-73.7026"/>
<polygon fill="none" stroke="black" points="564.79,-70.2323 554.388,-72.2461 563.775,-77.1584 564.79,-70.2323"/>
</g>
<!-- \\ArrayAccess -->
<g id="node51" class="node"><title>\\ArrayAccess</title>
<ellipse fill="none" stroke="black" cx="514.5" cy="-18" rx="60.3893" ry="18"/>
<text text-anchor="middle" x="514.5" y="-14.3" font-family="Times New Roman,serif" font-size="14.00" fill="gray">\ArrayAccess</text>
</g>
<!-- \\abstracts\\Collection&#45;&gt;\\ArrayAccess -->
<g id="edge16" class="edge"><title>\\abstracts\\Collection&#45;&gt;\\ArrayAccess</title>
<path fill="none" stroke="black" stroke-dasharray="1,5" d="M695.86,-2342.79C682.585,-2338.96 669.196,-2332.35 661,-2321 586.974,-2218.45 690.629,-144.845 613,-45 605.546,-35.4128 595.006,-29.0348 583.592,-24.8318"/>
<polygon fill="none" stroke="black" points="584.435,-21.4284 573.846,-21.7901 582.349,-28.1105 584.435,-21.4284"/>
</g>
<!-- \\Countable -->
<g id="node52" class="node"><title>\\Countable</title>
<ellipse fill="none" stroke="black" cx="514.5" cy="-180" rx="50.0912" ry="18"/>
<text text-anchor="middle" x="514.5" y="-176.3" font-family="Times New Roman,serif" font-size="14.00" fill="gray">\Countable</text>
</g>
<!-- \\abstracts\\Collection&#45;&gt;\\Countable -->
<g id="edge17" class="edge"><title>\\abstracts\\Collection&#45;&gt;\\Countable</title>
<path fill="none" stroke="black" stroke-dasharray="1,5" d="M695.756,-2342.46C682.638,-2338.59 669.374,-2332.05 661,-2321 627.457,-2276.75 530.163,-457.345 516.984,-208.167"/>
<polygon fill="none" stroke="black" points="520.475,-207.908 516.452,-198.106 513.485,-208.277 520.475,-207.908"/>
</g>
<!-- \\SeekableIterator -->
<g id="node53" class="node"><title>\\SeekableIterator</title>
<ellipse fill="none" stroke="black" cx="514.5" cy="-126" rx="71.4873" ry="18"/>
<text text-anchor="middle" x="514.5" y="-122.3" font-family="Times New Roman,serif" font-size="14.00" fill="gray">\SeekableIterator</text>
</g>
<!-- \\abstracts\\Collection&#45;&gt;\\SeekableIterator -->
<g id="edge18" class="edge"><title>\\abstracts\\Collection&#45;&gt;\\SeekableIterator</title>
<path fill="none" stroke="black" stroke-dasharray="1,5" d="M695.867,-2342.78C682.592,-2338.95 669.202,-2332.35 661,-2321 590.434,-2223.36 686.997,-248.071 613,-153 607.296,-145.671 599.789,-140.218 591.466,-136.178"/>
<polygon fill="none" stroke="black" points="592.741,-132.918 582.163,-132.328 590.064,-139.386 592.741,-132.918"/>
</g>
<!-- \\abstracts\\AbstractController -->
<g id="node33" class="node"><title>\\abstracts\\AbstractController</title>
<polygon fill="none" stroke="black" points="807,-2096 669,-2096 669,-2060 807,-2060 807,-2096"/>
<text text-anchor="start" x="704" y="-2081.2" font-family="Courier,monospace" font-size="11.00">«abstract»</text>
<text text-anchor="start" x="677" y="-2069.2" font-family="Courier,monospace" font-size="11.00">AbstractController</text>
</g>
<!-- \\interfaces\\http\\ServerRequestInterface -->
<g id="node34" class="node"><title>\\interfaces\\http\\ServerRequestInterface</title>
<polygon fill="none" stroke="black" points="597,-2368 432,-2368 432,-2332 597,-2332 597,-2368"/>
<text text-anchor="middle" x="514.5" y="-2347.2" font-family="Courier,monospace" font-size="11.00">ServerRequestInterface</text>
</g>
<!-- \\interfaces\\http\\RequestInterface -->
<g id="node35" class="node"><title>\\interfaces\\http\\RequestInterface</title>
<polygon fill="none" stroke="black" points="357,-2368 232,-2368 232,-2332 357,-2332 357,-2368"/>
<text text-anchor="middle" x="294.5" y="-2347.2" font-family="Courier,monospace" font-size="11.00">RequestInterface</text>
</g>
<!-- \\interfaces\\http\\ServerRequestInterface&#45;&gt;\\interfaces\\http\\RequestInterface -->
<g id="edge25" class="edge"><title>\\interfaces\\http\\ServerRequestInterface&#45;&gt;\\interfaces\\http\\RequestInterface</title>
<path fill="none" stroke="black" d="M431.705,-2350C410.62,-2350 388.085,-2350 367.537,-2350"/>
<polygon fill="none" stroke="black" points="367.31,-2346.5 357.31,-2350 367.31,-2353.5 367.31,-2346.5"/>
</g>
<!-- \\interfaces\\http\\MessageInterface -->
<g id="node40" class="node"><title>\\interfaces\\http\\MessageInterface</title>
<polygon fill="none" stroke="black" points="157,-2341 32,-2341 32,-2305 157,-2305 157,-2341"/>
<text text-anchor="middle" x="94.5" y="-2320.2" font-family="Courier,monospace" font-size="11.00">MessageInterface</text>
</g>
<!-- \\interfaces\\http\\RequestInterface&#45;&gt;\\interfaces\\http\\MessageInterface -->
<g id="edge26" class="edge"><title>\\interfaces\\http\\RequestInterface&#45;&gt;\\interfaces\\http\\MessageInterface</title>
<path fill="none" stroke="black" d="M231.937,-2341.61C211.357,-2338.8 188.245,-2335.65 166.975,-2332.75"/>
<polygon fill="none" stroke="black" points="167.406,-2329.27 157.025,-2331.39 166.46,-2336.21 167.406,-2329.27"/>
</g>
<!-- \\interfaces\\http\\ResponseInterface -->
<g id="node36" class="node"><title>\\interfaces\\http\\ResponseInterface</title>
<polygon fill="none" stroke="black" points="360,-2314 229,-2314 229,-2278 360,-2278 360,-2314"/>
<text text-anchor="middle" x="294.5" y="-2293.2" font-family="Courier,monospace" font-size="11.00">ResponseInterface</text>
</g>
<!-- \\interfaces\\http\\ResponseInterface&#45;&gt;\\interfaces\\http\\MessageInterface -->
<g id="edge27" class="edge"><title>\\interfaces\\http\\ResponseInterface&#45;&gt;\\interfaces\\http\\MessageInterface</title>
<path fill="none" stroke="black" d="M228.941,-2304.8C209.247,-2307.49 187.475,-2310.46 167.33,-2313.2"/>
<polygon fill="none" stroke="black" points="166.712,-2309.76 157.277,-2314.58 167.658,-2316.69 166.712,-2309.76"/>
</g>
<!-- \\interfaces\\http\\UploadedFileInterface -->
<g id="node37" class="node"><title>\\interfaces\\http\\UploadedFileInterface</title>
<polygon fill="none" stroke="black" points="593.5,-2314 435.5,-2314 435.5,-2278 593.5,-2278 593.5,-2314"/>
<text text-anchor="middle" x="514.5" y="-2293.2" font-family="Courier,monospace" font-size="11.00">UploadedFileInterface</text>
</g>
<!-- \\interfaces\\http\\StreamInterface -->
<g id="node38" class="node"><title>\\interfaces\\http\\StreamInterface</title>
<polygon fill="none" stroke="black" points="573.5,-2260 455.5,-2260 455.5,-2224 573.5,-2224 573.5,-2260"/>
<text text-anchor="middle" x="514.5" y="-2239.2" font-family="Courier,monospace" font-size="11.00">StreamInterface</text>
</g>
<!-- \\interfaces\\http\\UriInterface -->
<g id="node39" class="node"><title>\\interfaces\\http\\UriInterface</title>
<polygon fill="none" stroke="black" points="563.5,-2206 465.5,-2206 465.5,-2170 563.5,-2170 563.5,-2206"/>
<text text-anchor="middle" x="514.5" y="-2185.2" font-family="Courier,monospace" font-size="11.00">UriInterface</text>
</g>
<!-- \\traits\\FiltersTrait -->
<g id="node44" class="node"><title>\\traits\\FiltersTrait</title>
<polygon fill="none" stroke="black" points="1031,-420 933,-420 933,-384 1031,-384 1031,-420"/>
<text text-anchor="middle" x="982" y="-399.2" font-family="Courier,monospace" font-size="11.00">FiltersTrait</text>
</g>
<!-- \\traits\\PrettyOutputTrait -->
<g id="node45" class="node"><title>\\traits\\PrettyOutputTrait</title>
<polygon fill="none" stroke="black" points="1047.5,-366 916.5,-366 916.5,-330 1047.5,-330 1047.5,-366"/>
<text text-anchor="middle" x="982" y="-345.2" font-family="Courier,monospace" font-size="11.00">PrettyOutputTrait</text>
</g>
<!-- \\traits\\EchoTrait -->
<g id="node46" class="node"><title>\\traits\\EchoTrait</title>
<polygon fill="none" stroke="black" points="1020.5,-312 943.5,-312 943.5,-276 1020.5,-276 1020.5,-312"/>
<text text-anchor="middle" x="982" y="-291.2" font-family="Courier,monospace" font-size="11.00">EchoTrait</text>
</g>
<!-- \\traits\\ShortcutsTrait -->
<g id="node47" class="node"><title>\\traits\\ShortcutsTrait</title>
<polygon fill="none" stroke="black" points="1037.5,-258 926.5,-258 926.5,-222 1037.5,-222 1037.5,-258"/>
<text text-anchor="middle" x="982" y="-237.2" font-family="Courier,monospace" font-size="11.00">ShortcutsTrait</text>
</g>
</g>
</svg>
